<?xml version="1.0" encoding="UTF-8"?>
<!DOCTYPE svg PUBLIC "-//W3C//DTD SVG 1.1//EN" "http://www.w3.org/Graphics/SVG/1.1/DTD/svg11.dtd">
<!-- Creator: CorelDRAW Home & Student X7 -->
<svg xmlns="http://www.w3.org/2000/svg" xml:space="preserve" width="8.5in" height="11in" version="1.1" style="shape-rendering:geometricPrecision; text-rendering:geometricPrecision; image-rendering:optimizeQuality; fill-rule:evenodd; clip-rule:evenodd"
viewBox="0 0 8500 11000"
 xmlns:xlink="http://www.w3.org/1999/xlink">
 <defs>
  <style type="text/css">
   <![CDATA[
    .fil1 {fill:black}
    .fil0 {fill:black;fill-rule:nonzero}
   ]]>
  </style>
 </defs>
 <g id="Layer_x0020_1">
  <metadata id="CorelCorpID_0Corel-Layer"/>
  <path class="fil0" d="M3228 3476l665 0 16 0 17 0 648 0 17 0 16 0 665 0 17 0 0 17 0 665 0 16 0 17 0 648 0 17 0 16 0 665 0 17 -17 0 -665 0 -16 0 -17 0 -648 0 -17 0 -16 0 -665 0 -17 0 0 -17 0 -665 0 -16 0 -17 0 -648 0 -17 0 -16 0 -665 0 -17 17 0zm2028 1396l-649 0 0 649 649 0 0 -649zm0 -681l-649 0 0 648 649 0 0 -648zm-649 -682l0 649 649 0 0 -649 -649 0zm-33 1363l-648 0 0 649 648 0 0 -649zm0 -681l-648 0 0 648 648 0 0 -648zm-648 -682l0 649 648 0 0 -649 -648 0zm-33 1363l-649 0 0 649 649 0 0 -649zm0 -681l-649 0 0 648 649 0 0 -648zm0 -682l-649 0 0 649 649 0 0 -649z"/>
  <path class="fil1" d="M3865 5194c0,-160 -131,-291 -291,-291 -161,0 -291,131 -291,291 0,161 130,291 291,291 160,0 291,-130 291,-291z"/>
  <path class="fil1" d="M4540 5194c0,-160 -130,-291 -290,-291 -161,0 -291,131 -291,291 0,161 130,291 291,291 160,0 290,-130 290,-291z"/>
  <path class="fil1" d="M5225 5194c0,-160 -131,-291 -291,-291 -161,0 -291,131 -291,291 0,161 130,291 291,291 160,0 291,-130 291,-291z"/>
  <path class="fil1" d="M5225 4512c0,-160 -131,-290 -291,-290 -161,0 -291,130 -291,290 0,161 130,291 291,291 160,0 291,-130 291,-291z"/>
  <path class="fil1" d="M4542 3830c0,-161 -131,-291 -291,-291 -161,0 -291,130 -291,291 0,160 130,291 291,291 160,0 291,-131 291,-291z"/>
  <path class="fil0" d="M754 5903l511 0 0 134c0,17 -5,31 -14,41 -10,11 -22,17 -38,17 -15,0 -27,-6 -38,-17 -9,-11 -14,-25 -14,-41l0 -30 -100 0 0 638c0,17 -4,31 -14,42 -9,10 -22,16 -37,16 -16,0 -28,-6 -38,-16 -10,-11 -14,-25 -14,-42l0 -638 -100 0 0 30c0,17 -5,31 -14,41 -10,11 -23,17 -38,17 -15,0 -28,-6 -37,-17 -10,-11 -15,-25 -15,-41l0 -134 0 0z"/>
  <path id="_1" class="fil0" d="M1621 5961l0 245 75 -49c1,-2 3,-3 6,-5 31,-21 62,-32 93,-32l65 0c42,0 78,15 108,44 29,29 44,65 46,109l12 371 0 2c0,16 -4,30 -14,41 -10,10 -21,16 -35,16 -16,0 -28,-5 -38,-15 -10,-10 -15,-24 -16,-41l-13 -374c-1,-14 -6,-26 -15,-35 -9,-10 -21,-14 -35,-14l-67 0c-6,0 -11,1 -16,3 -5,2 -12,6 -21,12l-135 92 0 314c0,17 -5,31 -15,42 -10,10 -22,16 -38,16 -15,0 -27,-6 -37,-16 -9,-11 -14,-25 -14,-42l0 -684c0,-17 5,-32 14,-42 10,-11 22,-16 37,-16 16,0 28,6 38,16 9,11 15,25 15,42z"/>
  <path id="_2" class="fil0" d="M2478 6223c-5,0 -10,1 -16,3 -5,2 -11,6 -16,10l-44 36c-6,4 -11,11 -14,18 -3,6 -5,14 -5,21l0 70 303 0 0 -70c0,-7 -1,-15 -5,-21 -3,-7 -7,-13 -12,-17l-46 -37c-5,-4 -10,-8 -15,-10 -6,-2 -11,-3 -17,-3l-113 0 0 0zm-1 -103l114 0c18,0 35,3 52,9 17,7 33,16 47,28l45 35c17,14 30,32 40,53 10,21 15,44 15,66l0 123c0,15 -5,27 -16,37 -11,10 -25,15 -42,15l-349 0 0 27c0,7 2,14 5,21 3,7 8,12 14,17l44 37c4,4 9,7 15,8 5,2 11,3 17,3l254 0c17,0 32,5 42,14 11,10 16,23 16,38 0,15 -5,28 -16,37 -11,10 -25,15 -42,15l-255 0c-17,0 -34,-3 -50,-9 -17,-6 -33,-15 -48,-27l-44 -37c-17,-14 -31,-32 -41,-53 -10,-21 -15,-42 -15,-64l0 -202c0,-22 5,-45 15,-66 10,-21 24,-39 41,-53l44 -35c15,-12 31,-21 48,-28 16,-6 33,-9 50,-9l0 0z"/>
  <path id="_3" class="fil0" d="M3527 5961l0 638 349 0c18,0 31,5 42,14 10,10 16,23 16,38 0,15 -6,28 -16,37 -11,10 -25,15 -42,15l-453 0 0 -742c0,-17 5,-32 14,-42 10,-11 22,-16 38,-16 15,0 27,6 37,16 10,11 15,25 15,42l0 0z"/>
  <path id="_4" class="fil0" d="M4309 6441c-13,0 -25,5 -35,15 -9,10 -14,22 -14,36l0 58c0,13 5,25 14,34 10,10 22,15 36,15l138 0 112 -63 -2 -45c0,-14 -5,-26 -15,-36 -10,-9 -22,-14 -35,-14l-199 0 0 0zm6 -321l184 0c42,0 77,15 107,44 30,29 46,65 47,109l14 371 0 2c0,16 -5,30 -15,41 -10,10 -22,16 -36,16 -14,0 -26,-5 -36,-14 -9,-9 -15,-22 -17,-38l-60 38c-6,4 -14,7 -23,10 -8,2 -16,4 -23,4l-147 0c-42,0 -79,-15 -109,-45 -30,-30 -45,-66 -45,-108l0 -58c0,-42 15,-79 46,-109 30,-30 66,-45 108,-45l198 0c8,0 16,0 23,2 8,1 15,3 22,6l-3 -73c-1,-15 -6,-26 -16,-35 -9,-9 -21,-14 -35,-14l-184 0c-17,0 -31,-5 -41,-14 -9,-9 -14,-22 -14,-38 0,-15 5,-27 15,-37 10,-10 24,-15 40,-15l0 0z"/>
  <path id="_5" class="fil0" d="M5189 6224c-7,0 -13,1 -18,3 -6,3 -12,7 -18,12l-87 70c-4,4 -8,8 -10,15 -3,7 -4,14 -4,21l0 132c0,8 1,15 4,22 2,6 6,11 10,14l87 71c7,5 13,9 19,11 5,3 11,4 17,4l80 0c6,0 12,-1 17,-3 5,-2 11,-6 18,-11l35 -28c4,-3 8,-8 11,-15 3,-7 4,-14 4,-21l0 -220c0,-6 -1,-13 -4,-20 -3,-7 -7,-12 -11,-15l-34 -27c-7,-6 -13,-10 -18,-12 -5,-2 -11,-3 -18,-3l-80 0 0 0zm-137 -263l0 229 38 -33c13,-12 29,-20 46,-27 17,-6 35,-10 53,-10l80 0c18,0 36,3 53,9 17,7 32,16 47,28l35 27c16,12 29,28 39,50 11,22 16,43 16,63l0 224c0,22 -5,44 -16,66 -10,22 -23,40 -39,53l-35 27c-15,12 -31,21 -47,27 -17,6 -35,9 -53,9l-80 0c-18,0 -36,-3 -53,-10 -17,-6 -33,-14 -46,-26l-38 -33 0 11c0,17 -5,31 -14,42 -10,10 -22,16 -38,16 -15,0 -27,-6 -37,-16 -10,-11 -15,-25 -15,-42l0 -684c0,-17 5,-32 14,-42 10,-11 23,-16 38,-16 15,0 28,6 37,16 10,11 15,25 15,42l0 0z"/>
  <path id="_6" class="fil0" d="M5916 6382l101 0c15,0 28,5 38,16 9,10 14,24 14,41l0 76c0,18 -5,32 -14,42 -10,11 -22,16 -38,16l-101 0c-15,0 -28,-5 -38,-16 -9,-11 -14,-25 -14,-42l0 -76c0,-18 5,-32 14,-42 10,-10 23,-15 38,-15l0 0z"/>
  <path id="_7" class="fil0" d="M6982 6239l14 405 0 2c0,16 -5,30 -15,41 -10,10 -22,16 -36,16 -15,0 -28,-5 -37,-15 -10,-10 -15,-24 -16,-41l-14 -403c0,-6 -2,-10 -6,-14 -3,-4 -8,-6 -14,-6 -2,0 -4,0 -7,1 -3,1 -5,2 -6,5l-64 55 0 360c0,17 -5,31 -15,42 -9,10 -22,16 -37,16 -15,0 -28,-6 -37,-16 -10,-11 -15,-25 -15,-42l0 -399c0,-5 -2,-10 -7,-15 -5,-5 -10,-7 -16,-7 -3,0 -6,0 -8,2 -3,1 -5,2 -7,5l-73 59 0 355c0,17 -4,31 -14,42 -9,10 -22,16 -38,16 -14,0 -26,-6 -37,-16 -9,-11 -14,-25 -14,-42l0 -468c0,-17 4,-31 14,-41 10,-11 22,-16 37,-16 12,0 23,4 31,10 8,7 14,16 19,29l17 -14c12,-8 23,-15 34,-19 12,-4 25,-6 39,-6 19,0 38,4 54,12 17,8 33,20 48,36l12 -9c19,-15 34,-25 47,-31 12,-5 26,-8 40,-8 36,0 65,11 89,34 24,22 37,51 38,85l0 0z"/>
  <path id="_8" class="fil0" d="M7381 6120l219 0c34,0 65,11 93,32 28,20 42,42 42,63 0,15 -5,27 -15,37 -11,10 -23,15 -37,15 -13,0 -27,-7 -42,-21 -14,-15 -29,-22 -42,-22l-218 0c-8,0 -16,3 -22,9 -5,6 -8,14 -8,23 0,5 2,9 5,14 4,5 8,8 14,11l279 119c30,13 54,33 71,59 17,26 26,55 26,87 0,43 -15,80 -47,111 -30,30 -67,46 -110,46l-203 0c-36,0 -70,-11 -102,-32 -32,-21 -47,-42 -47,-63 0,-14 4,-26 14,-37 10,-10 22,-15 36,-15 11,0 27,7 46,22 19,14 37,21 53,21l203 0c14,0 27,-5 37,-15 11,-11 16,-24 16,-38 0,-11 -3,-20 -9,-30 -6,-9 -14,-15 -25,-19l-277 -121c-26,-11 -46,-28 -62,-50 -14,-22 -22,-46 -22,-72 0,-37 13,-68 40,-95 26,-25 57,-39 94,-39l0 0z"/>
  <path class="fil0" d="M810 7036l0 154 133 0c8,0 14,-3 20,-8 5,-6 8,-12 8,-20l0 -98c0,-7 -3,-14 -8,-19 -6,-6 -12,-9 -20,-9l-133 0 0 0zm-56 -55l189 0c23,0 43,8 59,24 17,17 25,36 25,59l0 98c0,23 -8,43 -25,59 -16,17 -36,25 -59,25l-133 0 0 131c0,9 -3,17 -8,22 -5,6 -12,9 -20,9 -8,0 -15,-3 -20,-9 -5,-6 -8,-13 -8,-22l0 -396z"/>
  <path id="_1_0" class="fil0" d="M1219 6981l76 0c9,0 16,3 22,8 5,5 9,12 9,20l0 343 50 0c9,0 17,3 22,8 6,5 8,12 8,20 0,8 -2,15 -8,20 -6,5 -13,8 -22,8l-157 0c-9,0 -16,-3 -22,-8 -6,-5 -8,-12 -8,-20 0,-8 2,-14 8,-20 6,-5 13,-8 22,-8l50 0 0 -316 -50 0c-9,0 -17,-2 -22,-7 -6,-5 -8,-12 -8,-20 0,-8 2,-15 8,-20 6,-5 13,-8 22,-8l0 0z"/>
  <path id="_2_1" class="fil0" d="M1650 7268c-7,0 -13,3 -18,8 -5,6 -8,12 -8,19l0 31c0,7 3,13 8,19 5,5 11,7 19,7l74 0 59 -33 0 -24c0,-8 -3,-14 -8,-19 -6,-5 -12,-8 -20,-8l-106 0 0 0zm3 -171l99 0c22,0 41,8 57,23 16,16 24,35 25,59l7 198 0 1c0,8 -2,15 -7,21 -6,6 -12,9 -20,9 -8,0 -14,-3 -19,-7 -5,-5 -8,-12 -9,-21l-32 20c-4,2 -8,4 -12,6 -5,1 -9,2 -12,2l-79 0c-23,0 -42,-8 -58,-24 -16,-16 -25,-35 -25,-58l0 -31c0,-22 9,-42 25,-58 16,-16 36,-24 58,-24l105 0c5,0 9,0 13,1 4,1 8,2 12,4l-2 -39c-1,-8 -3,-15 -8,-20 -5,-4 -12,-7 -19,-7l-99 0c-9,0 -16,-2 -21,-7 -5,-5 -8,-12 -8,-20 0,-9 3,-15 8,-20 6,-6 13,-8 21,-8l0 0z"/>
  <path id="_3_2" class="fil0" d="M2031 7128l0 17 33 -21 2 -2c23,-17 45,-25 66,-25l25 0c28,0 49,8 63,26 14,16 21,43 23,77l5 177 0 1c0,9 -2,16 -7,21 -6,6 -12,9 -20,9 -8,0 -15,-3 -20,-8 -5,-6 -7,-13 -8,-23l-6 -179c-1,-15 -4,-26 -10,-34 -5,-7 -14,-11 -25,-11l-18 0c-10,0 -22,5 -37,14l-2 2 -64 41 0 167c0,9 -2,17 -7,22 -5,6 -13,9 -21,9 -8,0 -14,-3 -19,-9 -6,-6 -8,-13 -8,-22l0 -249c0,-9 2,-17 7,-23 5,-5 12,-8 20,-8 8,0 15,3 20,9 6,5 8,13 8,22l0 0z"/>
  <path id="_4_3" class="fil0" d="M2489 7152c-3,0 -5,0 -8,1 -3,2 -6,3 -9,5l-24 20c-3,3 -5,5 -7,9 -2,4 -3,8 -3,11l0 108c0,4 1,9 3,12 2,4 4,7 7,9l24 20c3,2 5,3 8,4 3,1 6,1 9,1l60 0c3,0 7,0 10,-1 3,-1 6,-3 8,-5l23 -19c3,-2 5,-5 7,-9 2,-4 3,-8 3,-12l0 -108c0,-3 -1,-7 -3,-11 -1,-4 -4,-6 -6,-9l-24 -20c-3,-2 -6,-3 -9,-5 -2,-1 -6,-1 -9,-1l-60 0 0 0zm-1 -55l61 0c10,0 19,2 28,5 9,3 17,8 25,15l24 18c9,8 16,17 22,28 5,12 8,24 8,35l0 108c0,13 -3,24 -8,35 -6,11 -13,21 -22,28l-24 20c-8,6 -16,10 -25,14 -9,3 -18,5 -28,5l-61 0c-9,0 -18,-2 -26,-5 -9,-3 -18,-8 -26,-14l-23 -20c-10,-7 -17,-17 -22,-28 -5,-11 -8,-22 -8,-35l0 -108c0,-11 3,-23 8,-35 5,-11 12,-20 22,-28l23 -18c8,-7 17,-12 26,-15 8,-3 17,-5 26,-5z"/>
  <path id="_5_4" class="fil0" d="M2900 6981l47 0c11,0 20,2 25,7 6,5 9,12 9,21 0,1 -1,3 -1,4 0,2 0,4 -1,6l-51 180c-3,7 -6,13 -11,17 -5,4 -11,6 -17,6 -9,0 -15,-2 -20,-8 -6,-7 -8,-14 -8,-23l0 -179c0,-10 2,-17 7,-23 5,-5 12,-8 21,-8z"/>
  <path id="_6_5" class="fil0" d="M3275 7097l117 0c18,0 34,5 49,16 15,12 23,23 23,35 0,7 -3,14 -9,20 -5,5 -11,8 -19,8 -7,0 -14,-4 -22,-12 -8,-8 -15,-12 -23,-12l-116 0c-5,0 -9,2 -12,5 -3,3 -4,8 -4,13 0,2 1,5 3,7 2,3 4,5 7,6l149 63c16,7 29,18 38,32 9,14 13,29 13,47 0,22 -8,42 -24,58 -17,17 -36,25 -59,25l-109 0c-19,0 -37,-6 -54,-17 -17,-11 -25,-22 -25,-34 0,-7 2,-14 7,-19 6,-6 12,-8 19,-8 6,0 15,3 25,11 10,8 20,11 28,11l109 0c8,0 14,-2 20,-8 5,-5 8,-12 8,-19 0,-6 -1,-11 -5,-17 -3,-5 -7,-8 -13,-10l-148 -65c-14,-5 -25,-14 -33,-26 -8,-12 -11,-25 -11,-38 0,-20 6,-37 20,-51 14,-14 31,-21 51,-21l0 0z"/>
  <path id="_7_6" class="fil0" d="M3808 6981l68 0 69 96 67 -96 69 0 0 396c0,9 -2,17 -8,22 -5,6 -12,9 -20,9 -8,0 -14,-3 -20,-9 -5,-6 -8,-13 -8,-22l0 -318 -53 74 0 12c0,9 -2,17 -8,23 -5,5 -11,8 -19,8 -8,0 -16,-3 -21,-8 -5,-7 -7,-14 -7,-23l0 -12 -54 -74 0 318c0,9 -2,17 -7,22 -5,6 -12,9 -20,9 -8,0 -15,-3 -20,-9 -5,-6 -8,-13 -8,-22l0 -396 0 0z"/>
  <path id="_8_7" class="fil0" d="M4297 7268c-7,0 -13,3 -18,8 -6,6 -8,12 -8,19l0 31c0,7 2,13 8,19 5,5 11,7 19,7l73 0 60 -33 -1 -24c0,-8 -2,-14 -8,-19 -5,-5 -12,-8 -19,-8l-106 0 0 0zm3 -171l99 0c22,0 41,8 57,23 16,16 24,35 25,59l7 198 0 1c0,8 -2,15 -8,21 -5,6 -12,9 -19,9 -8,0 -14,-3 -19,-7 -5,-5 -8,-12 -9,-21l-32 20c-4,2 -8,4 -12,6 -5,1 -9,2 -12,2l-79 0c-23,0 -42,-8 -58,-24 -17,-16 -25,-35 -25,-58l0 -31c0,-22 8,-42 25,-58 16,-16 36,-24 58,-24l105 0c5,0 9,0 13,1 4,1 8,2 12,4l-2 -39c-1,-8 -3,-15 -9,-20 -5,-4 -11,-7 -18,-7l-99 0c-9,0 -16,-2 -21,-7 -6,-5 -8,-12 -8,-20 0,-9 2,-15 8,-20 6,-6 13,-8 21,-8l0 0z"/>
  <path id="_9" class="fil0" d="M4678 7012l0 216 143 -123c4,-3 7,-6 11,-7 3,-1 6,-2 9,-2 8,0 14,3 19,8 5,6 9,12 9,20 0,4 -1,8 -4,11 -2,4 -4,8 -8,11l-109 95 136 116c4,3 6,7 8,11 2,4 3,7 3,12 0,7 -2,14 -7,19 -5,5 -12,8 -19,8 -4,0 -8,-1 -12,-2 -3,-1 -7,-3 -10,-6l-142 -121 -27 22 0 77c0,9 -2,17 -8,22 -5,6 -12,9 -20,9 -8,0 -14,-3 -20,-9 -5,-6 -7,-13 -7,-22l0 -365c0,-10 2,-17 7,-23 5,-5 12,-8 20,-8 8,0 15,3 20,9 5,6 8,13 8,22l0 0z"/>
  <path id="_10" class="fil0" d="M5136 7152c-3,0 -6,0 -9,1 -2,2 -5,3 -8,5l-24 20c-3,3 -5,6 -7,9 -2,4 -3,8 -3,12l0 37 162 0 0 -37c0,-4 -1,-8 -3,-12 -1,-3 -4,-6 -7,-9l-23 -20c-3,-2 -6,-3 -9,-5 -3,-1 -6,-1 -9,-1l-60 0zm-1 -55l61 0c9,0 19,2 28,5 9,3 17,8 25,15l24 18c9,8 16,17 21,28 6,12 8,24 8,36l0 66c0,7 -2,14 -8,19 -6,5 -13,8 -22,8l-187 0 0 14c0,4 1,8 3,12 2,4 4,7 7,9l24 20c2,2 5,3 8,4 2,1 5,1 9,1l136 0c9,0 16,3 22,8 6,6 8,12 8,20 0,8 -2,15 -8,20 -6,5 -13,8 -22,8l-137 0c-9,0 -18,-2 -27,-5 -9,-3 -17,-8 -25,-14l-24 -20c-9,-7 -16,-17 -21,-28 -6,-11 -8,-22 -8,-35l0 -107c0,-12 2,-24 8,-36 5,-11 12,-20 21,-28l24 -18c8,-7 16,-12 25,-15 9,-3 18,-5 27,-5z"/>
  <path id="_11" class="fil0" d="M5492 7128l0 28 46 -39c7,-7 16,-12 25,-15 10,-3 19,-5 28,-5l36 0c23,0 42,8 58,24 17,16 25,35 25,58l0 12c0,9 -3,17 -8,23 -5,6 -12,8 -20,8 -8,0 -15,-2 -20,-8 -5,-7 -7,-14 -7,-23l0 -12c0,-7 -3,-13 -9,-19 -5,-6 -11,-8 -19,-8l-36 0c-3,0 -6,0 -10,2 -4,2 -7,3 -10,6l-79 70 0 147c0,9 -2,17 -7,22 -5,6 -12,9 -20,9 -8,0 -15,-3 -20,-9 -6,-6 -8,-13 -8,-22l0 -249c0,-10 2,-18 7,-23 5,-5 13,-8 21,-8 8,0 15,3 20,8 5,6 7,14 7,23l0 0z"/>
  <path id="_12" class="fil0" d="M5922 7097l116 0c19,0 35,5 50,16 15,12 22,23 22,35 0,7 -2,14 -8,20 -5,5 -12,8 -20,8 -6,0 -14,-4 -21,-12 -8,-8 -16,-12 -23,-12l-116 0c-5,0 -9,2 -12,5 -3,3 -4,8 -4,13 0,2 1,5 2,7 2,3 5,5 8,6l149 63c16,7 28,18 38,32 9,14 13,29 13,47 0,22 -8,42 -25,58 -16,17 -35,25 -58,25l-109 0c-19,0 -38,-6 -54,-17 -17,-11 -26,-22 -26,-34 0,-7 3,-14 8,-19 6,-6 12,-8 19,-8 6,0 14,3 24,11 11,8 21,11 29,11l109 0c7,0 14,-2 20,-8 5,-5 8,-12 8,-19 0,-6 -2,-11 -5,-17 -3,-5 -7,-8 -13,-10l-149 -65c-13,-5 -24,-14 -32,-26 -8,-12 -12,-25 -12,-38 0,-20 7,-37 21,-51 14,-14 31,-21 51,-21l0 0z"/>
  <path id="_13" class="fil0" d="M6381 7141c-3,0 -6,1 -9,2 -3,1 -6,3 -9,6l-49 49c-2,2 -4,5 -5,8 -2,3 -2,7 -2,11l0 70c0,4 0,8 2,11 1,3 3,6 5,8l49 49c3,2 6,5 9,7 3,1 7,2 9,2l13 0c4,0 7,-1 11,-2 3,-2 6,-4 9,-6l46 -39c2,-2 4,-4 6,-9 1,-3 2,-7 2,-10l0 -92c0,-3 -1,-7 -2,-11 -2,-4 -4,-7 -6,-8l-46 -39c-2,-3 -5,-4 -9,-5 -3,-1 -7,-2 -11,-2l-13 0 0 0zm-74 -25l0 12 13 -14c9,-10 19,-17 30,-22 10,-4 21,-7 31,-7l15 0c9,0 18,2 27,6 9,3 18,8 26,14l46 39c9,7 16,16 21,28 5,11 8,23 8,34l0 92c0,11 -3,23 -8,34 -5,12 -12,21 -21,28l-47 39c-7,6 -16,11 -25,15 -9,4 -19,5 -28,5l-13 0c-11,0 -22,-2 -32,-7 -11,-5 -21,-12 -30,-22l-13 -13 0 116c0,9 -3,16 -8,22 -5,6 -12,9 -20,9 -8,0 -15,-3 -20,-9 -5,-6 -7,-13 -7,-22l0 -377c0,-9 2,-17 7,-22 5,-6 12,-9 20,-9 8,0 15,3 20,9 5,6 8,13 8,22l0 0z"/>
  <path id="_14" class="fil0" d="M6740 7268c-6,0 -13,3 -18,8 -5,6 -8,12 -8,19l0 31c0,7 3,13 8,19 5,5 11,7 19,7l74 0 59 -33 -1 -24c0,-8 -2,-14 -8,-19 -5,-5 -11,-8 -18,-8l-107 0zm4 -171l98 0c22,0 41,8 57,23 16,16 24,35 25,59l8 198 0 1c0,8 -4,15 -9,21 -5,6 -11,9 -19,9 -7,0 -14,-3 -18,-7 -6,-5 -9,-12 -10,-21l-32 20c-3,2 -7,4 -12,6 -5,1 -9,2 -13,2l-78 0c-23,0 -42,-8 -58,-24 -16,-16 -24,-35 -24,-58l0 -31c0,-22 8,-42 24,-58 16,-16 36,-24 58,-24l106 0c4,0 8,0 12,1 4,1 8,2 11,4l-1 -39c-1,-8 -3,-15 -8,-20 -5,-4 -11,-7 -19,-7l-98 0c-9,0 -17,-2 -22,-7 -5,-5 -8,-12 -8,-20 0,-9 3,-15 8,-20 5,-6 13,-8 22,-8l0 0z"/>
  <path id="_15" class="fil0" d="M7197 7097l111 0c9,0 16,3 22,8 6,5 9,12 9,20 0,8 -3,15 -8,19 -6,5 -14,8 -23,8l-111 0c-3,0 -6,0 -9,2 -3,1 -6,3 -9,6l-50 43c-2,2 -4,4 -6,8 -1,4 -2,7 -2,11l0 61c0,4 1,7 2,11 2,3 4,6 6,8l50 43c4,3 7,5 10,6 3,1 5,1 8,1l111 0c9,0 17,3 22,8 6,6 9,12 9,20 0,8 -3,15 -9,20 -6,5 -13,8 -22,8l-111 0c-9,0 -18,-2 -28,-6 -10,-3 -18,-8 -25,-13l-49 -44c-9,-8 -17,-18 -22,-28 -5,-11 -7,-22 -7,-34l0 -61c0,-12 2,-23 7,-34 5,-10 13,-20 22,-28l49 -43c7,-7 15,-11 25,-15 10,-3 19,-5 28,-5l0 0z"/>
  <path id="_16" class="fil0" d="M7579 7152c-2,0 -5,0 -8,1 -3,2 -6,3 -9,5l-24 20c-3,3 -5,6 -7,9 -2,4 -2,8 -2,12l0 37 161 0 0 -37c0,-4 0,-8 -2,-12 -2,-3 -4,-6 -7,-9l-24 -20c-3,-2 -6,-3 -9,-5 -3,-1 -6,-1 -8,-1l-61 0 0 0zm0 -55l61 0c9,0 18,2 27,5 9,3 18,8 25,15l24 18c9,8 16,17 22,28 5,12 8,24 8,36l0 66c0,7 -3,14 -9,19 -6,5 -13,8 -22,8l-186 0 0 14c0,4 0,8 2,12 2,4 4,7 7,9l24 20c2,2 5,3 8,4 3,1 6,1 9,1l136 0c9,0 17,3 22,8 6,6 9,12 9,20 0,8 -3,15 -9,20 -6,5 -13,8 -22,8l-136 0c-9,0 -19,-2 -28,-5 -8,-3 -16,-8 -24,-14l-24 -20c-10,-7 -17,-17 -22,-28 -5,-11 -8,-22 -8,-35l0 -107c0,-12 3,-24 8,-36 5,-11 12,-20 22,-28l24 -18c8,-7 16,-12 24,-15 9,-3 19,-5 28,-5l0 0z"/>
 </g>
</svg>
